<?xml version="1.0" encoding="UTF-8" standalone="no"?>
<svg
   xmlns:dc="http://purl.org/dc/elements/1.1/"
   xmlns:cc="http://creativecommons.org/ns#"
   xmlns:rdf="http://www.w3.org/1999/02/22-rdf-syntax-ns#"
   xmlns:svg="http://www.w3.org/2000/svg"
   xmlns="http://www.w3.org/2000/svg"
   xmlns:sodipodi="http://sodipodi.sourceforge.net/DTD/sodipodi-0.dtd"
   xmlns:inkscape="http://www.inkscape.org/namespaces/inkscape"
   version="1.1"
   id="svg2"
   xml:space="preserve"
   width="381.99973"
   height="240.97639"
   viewBox="0 0 381.99973 240.97639"
   sodipodi:docname="cap4.svg"
   inkscape:version="0.92.4 (5da689c313, 2019-01-14)"><metadata
     id="metadata8"><rdf:RDF><cc:Work
         rdf:about=""><dc:format>image/svg+xml</dc:format><dc:type
           rdf:resource="http://purl.org/dc/dcmitype/StillImage" /><dc:title></dc:title></cc:Work></rdf:RDF></metadata><defs
     id="defs6" /><sodipodi:namedview
     pagecolor="#ffffff"
     bordercolor="#666666"
     borderopacity="1"
     objecttolerance="10"
     gridtolerance="10"
     guidetolerance="10"
     inkscape:pageopacity="0"
     inkscape:pageshadow="2"
     inkscape:window-width="1366"
     inkscape:window-height="705"
     id="namedview4"
     showgrid="false"
     inkscape:zoom="1.4478101"
     inkscape:cx="167.36324"
     inkscape:cy="104.41783"
     inkscape:window-x="-8"
     inkscape:window-y="-8"
     inkscape:window-maximized="1"
     inkscape:current-layer="g10"
     inkscape:document-rotation="0"
     showguides="true"
     inkscape:guide-bbox="true"><sodipodi:guide
       position="-9.7679492,-37.606605"
       orientation="0,1"
       id="guide1574"
       inkscape:locked="false" /></sodipodi:namedview><g
     id="g10"
     inkscape:groupmode="layer"
     inkscape:label="cap4"
     transform="matrix(1.3333333,0,0,-1.3333333,1.3333333,239.64307)"><g
   id="g192"
   style="fill:#552200;fill-opacity:0.80000001"><path
     d="m 39.6785,21.0756 -1.3065,2.6127 h 2.613 z m 0.3736,155.0784 v -152.5 h -0.7472 v 152.5 z m -0.3736,2.5783 1.3065,-2.6126 h -2.613 z"
     style="fill:#552200;fill-opacity:0.80000001;fill-rule:nonzero;stroke:none"
     id="path194"
     inkscape:connector-curvature="0" /></g><path
   d="m 38.6745,29.6178 h 2.0367"
   style="fill:none;stroke:#000000;stroke-width:0.37279999;stroke-linecap:butt;stroke-linejoin:miter;stroke-miterlimit:22.92558479;stroke-dasharray:none;stroke-opacity:1"
   id="path196"
   inkscape:connector-curvature="0" /><path
   d="m 38.6745,34.7236 h 2.0367"
   style="fill:none;stroke:#000000;stroke-width:0.37279999;stroke-linecap:butt;stroke-linejoin:miter;stroke-miterlimit:22.92558479;stroke-dasharray:none;stroke-opacity:1"
   id="path198"
   inkscape:connector-curvature="0" /><path
   d="m 38.6745,39.858 h 2.0367"
   style="fill:none;stroke:#000000;stroke-width:0.37279999;stroke-linecap:butt;stroke-linejoin:miter;stroke-miterlimit:22.92558479;stroke-dasharray:none;stroke-opacity:1"
   id="path200"
   inkscape:connector-curvature="0" /><path
   d="m 38.6745,50.0695 h 2.0367"
   style="fill:none;stroke:#000000;stroke-width:0.37279999;stroke-linecap:butt;stroke-linejoin:miter;stroke-miterlimit:22.92558479;stroke-dasharray:none;stroke-opacity:1"
   id="path204"
   inkscape:connector-curvature="0" /><path
   d="m 38.6745,55.2039 h 2.0367"
   style="fill:none;stroke:#000000;stroke-width:0.37279999;stroke-linecap:butt;stroke-linejoin:miter;stroke-miterlimit:22.92558479;stroke-dasharray:none;stroke-opacity:1"
   id="path206"
   inkscape:connector-curvature="0" /><path
   d="m 38.6745,60.3096 h 2.0367"
   style="fill:none;stroke:#000000;stroke-width:0.37279999;stroke-linecap:butt;stroke-linejoin:miter;stroke-miterlimit:22.92558479;stroke-dasharray:none;stroke-opacity:1"
   id="path208"
   inkscape:connector-curvature="0" /><path
   d="m 38.6745,65.444 h 2.0367"
   style="fill:none;stroke:#000000;stroke-width:0.37279999;stroke-linecap:butt;stroke-linejoin:miter;stroke-miterlimit:22.92558479;stroke-dasharray:none;stroke-opacity:1"
   id="path210"
   inkscape:connector-curvature="0" /><path
   d="m 37.6421,70.5498 h 4.0731"
   style="fill:none;stroke:#000000;stroke-width:0.37279999;stroke-linecap:butt;stroke-linejoin:miter;stroke-miterlimit:22.92558479;stroke-dasharray:none;stroke-opacity:1"
   id="path212"
   inkscape:connector-curvature="0" /><path
   d="m 38.6745,75.6556 h 2.0367"
   style="fill:none;stroke:#000000;stroke-width:0.37279999;stroke-linecap:butt;stroke-linejoin:miter;stroke-miterlimit:22.92558479;stroke-dasharray:none;stroke-opacity:1"
   id="path214"
   inkscape:connector-curvature="0" /><path
   d="m 38.6745,80.79 h 2.0367"
   style="fill:none;stroke:#000000;stroke-width:0.37279999;stroke-linecap:butt;stroke-linejoin:miter;stroke-miterlimit:22.92558479;stroke-dasharray:none;stroke-opacity:1"
   id="path216"
   inkscape:connector-curvature="0" /><path
   d="m 38.6745,85.8957 h 2.0367"
   style="fill:none;stroke:#000000;stroke-width:0.37279999;stroke-linecap:butt;stroke-linejoin:miter;stroke-miterlimit:22.92558479;stroke-dasharray:none;stroke-opacity:1"
   id="path218"
   inkscape:connector-curvature="0" /><path
   d="m 38.6745,91.0015 h 2.0367"
   style="fill:none;stroke:#000000;stroke-width:0.37279999;stroke-linecap:butt;stroke-linejoin:miter;stroke-miterlimit:22.92558479;stroke-dasharray:none;stroke-opacity:1"
   id="path220"
   inkscape:connector-curvature="0" /><path
   d="m 37.6421,96.1356 h 4.0731"
   style="fill:none;stroke:#000000;stroke-width:0.37279999;stroke-linecap:butt;stroke-linejoin:miter;stroke-miterlimit:22.92558479;stroke-dasharray:none;stroke-opacity:1"
   id="path222"
   inkscape:connector-curvature="0" /><path
   d="m 38.6745,101.2414 h 2.0367"
   style="fill:none;stroke:#000000;stroke-width:0.37279999;stroke-linecap:butt;stroke-linejoin:miter;stroke-miterlimit:22.92558479;stroke-dasharray:none;stroke-opacity:1"
   id="path224"
   inkscape:connector-curvature="0" /><path
   d="m 38.6745,106.3471 h 2.0367"
   style="fill:none;stroke:#000000;stroke-width:0.37279999;stroke-linecap:butt;stroke-linejoin:miter;stroke-miterlimit:22.92558479;stroke-dasharray:none;stroke-opacity:1"
   id="path226"
   inkscape:connector-curvature="0" /><path
   d="m 38.6745,111.4815 h 2.0367"
   style="fill:none;stroke:#000000;stroke-width:0.37279999;stroke-linecap:butt;stroke-linejoin:miter;stroke-miterlimit:22.92558479;stroke-dasharray:none;stroke-opacity:1"
   id="path228"
   inkscape:connector-curvature="0" /><path
   d="m 38.6745,116.5873 h 2.0367"
   style="fill:none;stroke:#000000;stroke-width:0.37279999;stroke-linecap:butt;stroke-linejoin:miter;stroke-miterlimit:22.92558479;stroke-dasharray:none;stroke-opacity:1"
   id="path230"
   inkscape:connector-curvature="0" /><path
   d="m 37.6421,121.693 h 4.0731"
   style="fill:none;stroke:#000000;stroke-width:0.37279999;stroke-linecap:butt;stroke-linejoin:miter;stroke-miterlimit:22.92558479;stroke-dasharray:none;stroke-opacity:1"
   id="path232"
   inkscape:connector-curvature="0" /><path
   d="m 38.6745,126.8274 h 2.0367"
   style="fill:none;stroke:#000000;stroke-width:0.37279999;stroke-linecap:butt;stroke-linejoin:miter;stroke-miterlimit:22.92558479;stroke-dasharray:none;stroke-opacity:1"
   id="path234"
   inkscape:connector-curvature="0" /><path
   d="m 38.6745,131.9332 h 2.0367"
   style="fill:none;stroke:#000000;stroke-width:0.37279999;stroke-linecap:butt;stroke-linejoin:miter;stroke-miterlimit:22.92558479;stroke-dasharray:none;stroke-opacity:1"
   id="path236"
   inkscape:connector-curvature="0" /><path
   d="m 38.6745,137.039 h 2.0367"
   style="fill:none;stroke:#000000;stroke-width:0.37279999;stroke-linecap:butt;stroke-linejoin:miter;stroke-miterlimit:22.92558479;stroke-dasharray:none;stroke-opacity:1"
   id="path238"
   inkscape:connector-curvature="0" /><path
   d="m 38.6745,142.1734 h 2.0367"
   style="fill:none;stroke:#000000;stroke-width:0.37279999;stroke-linecap:butt;stroke-linejoin:miter;stroke-miterlimit:22.92558479;stroke-dasharray:none;stroke-opacity:1"
   id="path240"
   inkscape:connector-curvature="0" /><path
   d="m 37.6421,147.2791 h 4.0731"
   style="fill:none;stroke:#000000;stroke-width:0.37279999;stroke-linecap:butt;stroke-linejoin:miter;stroke-miterlimit:22.92558479;stroke-dasharray:none;stroke-opacity:1"
   id="path242"
   inkscape:connector-curvature="0" /><path
   d="m 38.6745,152.4135 h 2.0367"
   style="fill:none;stroke:#000000;stroke-width:0.37279999;stroke-linecap:butt;stroke-linejoin:miter;stroke-miterlimit:22.92558479;stroke-dasharray:none;stroke-opacity:1"
   id="path244"
   inkscape:connector-curvature="0" /><path
   d="m 38.6745,157.5193 h 2.0367"
   style="fill:none;stroke:#000000;stroke-width:0.37279999;stroke-linecap:butt;stroke-linejoin:miter;stroke-miterlimit:22.92558479;stroke-dasharray:none;stroke-opacity:1"
   id="path246"
   inkscape:connector-curvature="0" /><path
   d="m 38.6745,162.625 h 2.0367"
   style="fill:none;stroke:#000000;stroke-width:0.37279999;stroke-linecap:butt;stroke-linejoin:miter;stroke-miterlimit:22.92558479;stroke-dasharray:none;stroke-opacity:1"
   id="path248"
   inkscape:connector-curvature="0" /><g
   id="g250"
   style="fill:#552200;fill-opacity:0.95477384;opacity:0.99999998"><path
     d="m 0,70.5498 2.6127,1.3065 v -2.613 z M 281.9214,70.177 H 2.5784 v 0.7456 h 279.343 z m 2.5784,0.3728 -2.6127,-1.3065 v 2.613 z"
     style="fill:#552200;fill-opacity:0.95477384;fill-rule:nonzero;stroke:none"
     id="path252"
     inkscape:connector-curvature="0" /></g><path
   d="m 18.1083,70.005 v 1.0899"
   style="fill:none;stroke:#000000;stroke-width:0.37279999;stroke-linecap:butt;stroke-linejoin:miter;stroke-miterlimit:22.92558479;stroke-dasharray:none;stroke-opacity:1"
   id="path254"
   inkscape:connector-curvature="0" /><path
   d="m 25.308,70.005 v 1.0899"
   style="fill:none;stroke:#000000;stroke-width:0.37279999;stroke-linecap:butt;stroke-linejoin:miter;stroke-miterlimit:22.92558479;stroke-dasharray:none;stroke-opacity:1"
   id="path256"
   inkscape:connector-curvature="0" /><path
   d="m 32.5074,70.005 v 1.0899"
   style="fill:none;stroke:#000000;stroke-width:0.37279999;stroke-linecap:butt;stroke-linejoin:miter;stroke-miterlimit:22.92558479;stroke-dasharray:none;stroke-opacity:1"
   id="path258"
   inkscape:connector-curvature="0" /><path
   d="m 46.8782,70.005 v 1.0899"
   style="fill:none;stroke:#000000;stroke-width:0.37279999;stroke-linecap:butt;stroke-linejoin:miter;stroke-miterlimit:22.92558479;stroke-dasharray:none;stroke-opacity:1"
   id="path260"
   inkscape:connector-curvature="0" /><path
   d="m 54.078,70.005 v 1.0899"
   style="fill:none;stroke:#000000;stroke-width:0.37279999;stroke-linecap:butt;stroke-linejoin:miter;stroke-miterlimit:22.92558479;stroke-dasharray:none;stroke-opacity:1"
   id="path262"
   inkscape:connector-curvature="0" /><path
   d="m 61.2777,70.005 v 1.0899"
   style="fill:none;stroke:#000000;stroke-width:0.37279999;stroke-linecap:butt;stroke-linejoin:miter;stroke-miterlimit:22.92558479;stroke-dasharray:none;stroke-opacity:1"
   id="path264"
   inkscape:connector-curvature="0" /><path
   d="m 68.4774,70.005 v 1.0899"
   style="fill:none;stroke:#000000;stroke-width:0.37279999;stroke-linecap:butt;stroke-linejoin:miter;stroke-miterlimit:22.92558479;stroke-dasharray:none;stroke-opacity:1"
   id="path266"
   inkscape:connector-curvature="0" /><path
   d="m 75.6768,69.4599 v 2.1798"
   style="fill:none;stroke:#000000;stroke-width:0.37279999;stroke-linecap:butt;stroke-linejoin:miter;stroke-miterlimit:22.92558479;stroke-dasharray:none;stroke-opacity:1"
   id="path268"
   inkscape:connector-curvature="0" /><path
   d="m 82.8763,70.005 v 1.0899"
   style="fill:none;stroke:#000000;stroke-width:0.37279999;stroke-linecap:butt;stroke-linejoin:miter;stroke-miterlimit:22.92558479;stroke-dasharray:none;stroke-opacity:1"
   id="path270"
   inkscape:connector-curvature="0" /><path
   d="m 90.076,70.005 v 1.0899"
   style="fill:none;stroke:#000000;stroke-width:0.37279999;stroke-linecap:butt;stroke-linejoin:miter;stroke-miterlimit:22.92558479;stroke-dasharray:none;stroke-opacity:1"
   id="path272"
   inkscape:connector-curvature="0" /><path
   d="m 97.2757,70.005 v 1.0899"
   style="fill:none;stroke:#000000;stroke-width:0.37279999;stroke-linecap:butt;stroke-linejoin:miter;stroke-miterlimit:22.92558479;stroke-dasharray:none;stroke-opacity:1"
   id="path274"
   inkscape:connector-curvature="0" /><path
   d="m 104.4754,70.005 v 1.0899"
   style="fill:none;stroke:#000000;stroke-width:0.37279999;stroke-linecap:butt;stroke-linejoin:miter;stroke-miterlimit:22.92558479;stroke-dasharray:none;stroke-opacity:1"
   id="path276"
   inkscape:connector-curvature="0" /><path
   d="m 111.6751,69.4599 v 2.1798"
   style="fill:none;stroke:#000000;stroke-width:0.37279999;stroke-linecap:butt;stroke-linejoin:miter;stroke-miterlimit:22.92558479;stroke-dasharray:none;stroke-opacity:1"
   id="path278"
   inkscape:connector-curvature="0" /><path
   d="m 118.8748,70.005 v 1.0899"
   style="fill:none;stroke:#000000;stroke-width:0.37279999;stroke-linecap:butt;stroke-linejoin:miter;stroke-miterlimit:22.92558479;stroke-dasharray:none;stroke-opacity:1"
   id="path280"
   inkscape:connector-curvature="0" /><path
   d="m 126.0743,70.005 v 1.0899"
   style="fill:none;stroke:#000000;stroke-width:0.37279999;stroke-linecap:butt;stroke-linejoin:miter;stroke-miterlimit:22.92558479;stroke-dasharray:none;stroke-opacity:1"
   id="path282"
   inkscape:connector-curvature="0" /><path
   d="m 133.274,70.005 v 1.0899"
   style="fill:none;stroke:#000000;stroke-width:0.37279999;stroke-linecap:butt;stroke-linejoin:miter;stroke-miterlimit:22.92558479;stroke-dasharray:none;stroke-opacity:1"
   id="path284"
   inkscape:connector-curvature="0" /><path
   d="m 140.4737,70.005 v 1.0899"
   style="fill:none;stroke:#000000;stroke-width:0.37279999;stroke-linecap:butt;stroke-linejoin:miter;stroke-miterlimit:22.92558479;stroke-dasharray:none;stroke-opacity:1"
   id="path286"
   inkscape:connector-curvature="0" /><path
   d="m 147.6734,69.4599 v 2.1798"
   style="fill:none;stroke:#000000;stroke-width:0.37279999;stroke-linecap:butt;stroke-linejoin:miter;stroke-miterlimit:22.92558479;stroke-dasharray:none;stroke-opacity:1"
   id="path288"
   inkscape:connector-curvature="0" /><path
   d="m 154.8731,70.005 v 1.0899"
   style="fill:none;stroke:#000000;stroke-width:0.37279999;stroke-linecap:butt;stroke-linejoin:miter;stroke-miterlimit:22.92558479;stroke-dasharray:none;stroke-opacity:1"
   id="path290"
   inkscape:connector-curvature="0" /><path
   d="m 162.0442,70.005 v 1.0899"
   style="fill:none;stroke:#000000;stroke-width:0.37279999;stroke-linecap:butt;stroke-linejoin:miter;stroke-miterlimit:22.92558479;stroke-dasharray:none;stroke-opacity:1"
   id="path292"
   inkscape:connector-curvature="0" /><path
   d="m 169.2437,70.005 v 1.0899"
   style="fill:none;stroke:#000000;stroke-width:0.37279999;stroke-linecap:butt;stroke-linejoin:miter;stroke-miterlimit:22.92558479;stroke-dasharray:none;stroke-opacity:1"
   id="path294"
   inkscape:connector-curvature="0" /><path
   d="m 176.4434,70.005 v 1.0899"
   style="fill:none;stroke:#000000;stroke-width:0.37279999;stroke-linecap:butt;stroke-linejoin:miter;stroke-miterlimit:22.92558479;stroke-dasharray:none;stroke-opacity:1"
   id="path296"
   inkscape:connector-curvature="0" /><path
   d="m 183.6431,69.4599 v 2.1798"
   style="fill:none;stroke:#000000;stroke-width:0.37279999;stroke-linecap:butt;stroke-linejoin:miter;stroke-miterlimit:22.92558479;stroke-dasharray:none;stroke-opacity:1"
   id="path298"
   inkscape:connector-curvature="0" /><path
   d="m 190.8428,70.005 v 1.0899"
   style="fill:none;stroke:#000000;stroke-width:0.37279999;stroke-linecap:butt;stroke-linejoin:miter;stroke-miterlimit:22.92558479;stroke-dasharray:none;stroke-opacity:1"
   id="path300"
   inkscape:connector-curvature="0" /><path
   d="m 198.0425,70.005 v 1.0899"
   style="fill:none;stroke:#000000;stroke-width:0.37279999;stroke-linecap:butt;stroke-linejoin:miter;stroke-miterlimit:22.92558479;stroke-dasharray:none;stroke-opacity:1"
   id="path302"
   inkscape:connector-curvature="0" /><path
   d="m 205.2422,70.005 v 1.0899"
   style="fill:none;stroke:#000000;stroke-width:0.37279999;stroke-linecap:butt;stroke-linejoin:miter;stroke-miterlimit:22.92558479;stroke-dasharray:none;stroke-opacity:1"
   id="path304"
   inkscape:connector-curvature="0" /><path
   d="m 212.442,70.005 v 1.0899"
   style="fill:none;stroke:#000000;stroke-width:0.37279999;stroke-linecap:butt;stroke-linejoin:miter;stroke-miterlimit:22.92558479;stroke-dasharray:none;stroke-opacity:1"
   id="path306"
   inkscape:connector-curvature="0" /><path
   d="m 226.8408,70.005 v 1.0899"
   style="fill:none;stroke:#000000;stroke-width:0.37279999;stroke-linecap:butt;stroke-linejoin:miter;stroke-miterlimit:22.92558479;stroke-dasharray:none;stroke-opacity:1"
   id="path310"
   inkscape:connector-curvature="0" /><path
   d="m 234.0405,70.005 v 1.0899"
   style="fill:none;stroke:#000000;stroke-width:0.37279999;stroke-linecap:butt;stroke-linejoin:miter;stroke-miterlimit:22.92558479;stroke-dasharray:none;stroke-opacity:1"
   id="path312"
   inkscape:connector-curvature="0" /><path
   d="m 241.2403,70.005 v 1.0899"
   style="fill:none;stroke:#000000;stroke-width:0.37279999;stroke-linecap:butt;stroke-linejoin:miter;stroke-miterlimit:22.92558479;stroke-dasharray:none;stroke-opacity:1"
   id="path314"
   inkscape:connector-curvature="0" /><path
   d="m 248.44,70.005 v 1.0899"
   style="fill:none;stroke:#000000;stroke-width:0.37279999;stroke-linecap:butt;stroke-linejoin:miter;stroke-miterlimit:22.92558479;stroke-dasharray:none;stroke-opacity:1"
   id="path316"
   inkscape:connector-curvature="0" /><path
   d="m 255.6397,69.4599 v 2.1798"
   style="fill:none;stroke:#000000;stroke-width:0.37279999;stroke-linecap:butt;stroke-linejoin:miter;stroke-miterlimit:22.92558479;stroke-dasharray:none;stroke-opacity:1"
   id="path318"
   inkscape:connector-curvature="0" />










<path
   d="m 262.8394,70.005 v 1.0899"
   style="fill:none;stroke:#000000;stroke-width:0.0286;stroke-linecap:butt;stroke-linejoin:miter;stroke-miterlimit:22.92558479;stroke-dasharray:none;stroke-opacity:1"
   id="path364"
   inkscape:connector-curvature="0" /><path
   d="m 10.799997,73.976601 c 0,-66.5416179 0,-66.5416179 0,-66.5416179"
   style="fill:#0093ff;stroke:#0000ff;stroke-width:0.50524205;stroke-linecap:butt;stroke-linejoin:miter;stroke-miterlimit:22.92558479;stroke-dasharray:0.50524205, 0.50524205;stroke-dashoffset:0;stroke-opacity:1"
   id="path366"
   inkscape:connector-curvature="0" /><path
   d="m 31.3679,31.441 c 0,-24.3232 0,-24.3232 0,-24.3232"
   style="fill:#0093ff;stroke:#0000ff;stroke-width:0.5;stroke-linecap:butt;stroke-linejoin:miter;stroke-miterlimit:22.92558479;stroke-dasharray:0.5, 0.5;stroke-dashoffset:0;stroke-opacity:1"
   id="path368"
   inkscape:connector-curvature="0" /><path
   d="m 86.4394,129.1929 c 0,-122.0751 0,-122.0751 0,-122.0751"
   style="fill:#0093ff;stroke:#0000ff;stroke-width:0.5;stroke-linecap:butt;stroke-linejoin:miter;stroke-miterlimit:22.92558479;stroke-dasharray:0.5, 0.50000000000000000;stroke-dashoffset:0;stroke-opacity:1"
   id="path370"
   inkscape:connector-curvature="0" /><g
   id="g5333"
   transform="translate(-0.5036599)" /><path
   d="m 163.0806,101.6572 c 0,-94.5403 0,-94.5403 0,-94.5403"
   style="fill:#0093ff;stroke:#0000ff;stroke-width:0.5;stroke-linecap:butt;stroke-linejoin:miter;stroke-miterlimit:22.92558479;stroke-dasharray:0.5, 0.5;stroke-dashoffset:0;stroke-opacity:1"
   id="path374"
   inkscape:connector-curvature="0" /><path
   d="m 209.4324,61.7304 c 0,-54.6143 0,-54.6126 0,-54.6126"
   style="fill:#0093ff;stroke:#0000ff;stroke-width:0.5;stroke-linecap:butt;stroke-linejoin:miter;stroke-miterlimit:22.92558479;stroke-dasharray:0.5, 0.5;stroke-dashoffset:0;stroke-opacity:1"
   id="path376"
   inkscape:connector-curvature="0" /><path
   d="M 264.5053,160.1448 C 265.4232,5.9951 265.4232,5.9951 265.4232,5.9951"
   style="fill:#0093ff;stroke:#231f20;stroke-width:0.5;stroke-linecap:butt;stroke-linejoin:miter;stroke-miterlimit:22.92558479;stroke-dasharray:0.5, 0.50000000000000000;stroke-dashoffset:0;stroke-opacity:1"
   id="path378"
   inkscape:connector-curvature="0" /><g
   id="g388"
   transform="translate(0,6.1845)"><path
     d="m 17.4453,11.0713 h 9.3903 V 1.6809 h -9.3903 z"
     style="fill:#ffffff;fill-opacity:1;fill-rule:evenodd;stroke:none"
     id="path390"
     inkscape:connector-curvature="0" /><g
     id="g392"><g
   aria-label="I"
   transform="matrix(1,0,0,-1,19.0474,3.6564)"
   id="text396"
   style="font-style:italic;font-variant:normal;font-size:8.36240959px;font-family:'Times New Roman';-inkscape-font-specification:TimesNewRomanPS-ItalicMT;writing-mode:lr-tb;fill:#000000;fill-opacity:1;fill-rule:nonzero;stroke:none"><path
     d="M 2.0620199,-0.15107869 2.0171047,0 h -2.27843 l 0.0571649,-0.15107869 q 0.34298946,-0.008166 0.45323607,-0.0571649 0.17966114,-0.0694145 0.2654085,-0.19191077 0.13474586,-0.19191076 0.27765813,-0.68597894 l 0.9636371,-3.340064 q 0.1224962,-0.4164872 0.1224962,-0.628814 0,-0.1061634 -0.053082,-0.1796611 Q 1.7721116,-5.3081704 1.6618653,-5.344919 1.5557019,-5.385751 1.2412949,-5.385751 l 0.048999,-0.1510787 h 2.1396009 l -0.044915,0.1510787 q -0.2613253,-0.00408 -0.3879048,0.057165 -0.1837443,0.081664 -0.2817413,0.2327429 -0.093914,0.1510786 -0.2449925,0.669646 l -0.9595538,3.340064 q -0.1306627,0.46140252 -0.1306627,0.58798196 0,0.10208019 0.048998,0.17557793 0.053082,0.0694145 0.1633283,0.11024661 0.1143299,0.0367489 0.4695689,0.0612479 z"
     id="path1037"
     inkscape:connector-curvature="0" /></g>
<g
   aria-label="1"
   transform="matrix(1,0,0,-1,22.3138,2.6113)"
   id="text400"
   style="font-variant:normal;font-weight:normal;font-size:5.57505989px;font-family:'Times New Roman';-inkscape-font-specification:TimesNewRomanPSMT;writing-mode:lr-tb;fill:#000000;fill-opacity:1;fill-rule:nonzero;stroke:none"><path
     d="M 0.65332733,-3.3292472 1.5516524,-3.7675209 h 0.089832 v 3.11691577 q 0,0.31033048 0.0245,0.386552 0.027222,0.0762215 0.1088879,0.11705448 0.081666,0.040833 0.332108,0.0462774 V 0 H 0.71866006 v -0.1007213 q 0.26133094,-0.005444 0.33755244,-0.0435552 0.076221,-0.040833 0.1061657,-0.10616569 0.029944,-0.0680549 0.029944,-0.40016299 V -2.6432535 q 0,-0.4028852 -0.027222,-0.5172175 -0.019055,-0.08711 -0.070777,-0.1279432 -0.049,-0.040833 -0.1197767,-0.040833 -0.10072129,0 -0.28038631,0.084388 z"
     id="path1040"
     inkscape:connector-curvature="0" /></g>
</g></g><g
   id="g418"
   transform="translate(0,6.7497)"><path
     d="m 54.3662,10.6132 h 8.6443 V 1.0086 h -8.6443 z"
     style="fill:#ffffff;fill-opacity:1;fill-rule:evenodd;stroke:none"
     id="path420"
     inkscape:connector-curvature="0" /><g
     id="g422"><g
   aria-label="I"
   transform="matrix(1,0,0,-1,55.6146,3.5331)"
   id="text426"
   style="font-style:italic;font-variant:normal;font-size:9.24083996px;font-family:'Times New Roman';-inkscape-font-specification:TimesNewRomanPS-ItalicMT;writing-mode:lr-tb;fill:#000000;fill-opacity:1;fill-rule:nonzero;stroke:none"><path
     d="M 2.2786251,-0.16694877 2.2289917,0 h -2.51776795 l 0.0631698,-0.16694877 q 0.37901882,-0.009024 0.5008463,-0.0631698 0.19853367,-0.0767062 0.29328838,-0.21207006 Q 0.71742849,-0.65425869 0.875353,-1.2002263 l 1.0648624,-3.6909214 q 0.1353639,-0.4602372 0.1353639,-0.6948679 0,-0.1173153 -0.058658,-0.1985336 -0.058658,-0.081218 -0.1804851,-0.1218275 -0.1173154,-0.045121 -0.4647493,-0.045121 l 0.054145,-0.1669488 h 2.3643556 l -0.049634,0.1669488 q -0.2887762,-0.00451 -0.4286522,0.06317 -0.2030458,0.090243 -0.3113369,0.2571914 -0.103779,0.1669487 -0.2707277,0.7399891 l -1.0603503,3.6909214 q -0.1443881,0.50987058 -0.1443881,0.64974658 0,0.11280322 0.054145,0.19402154 0.058658,0.0767062 0.1804852,0.12182748 0.1263396,0.0406092 0.5188948,0.0676819 z"
     id="path1043"
     inkscape:connector-curvature="0" /></g>
<g
   aria-label="2"
   transform="matrix(1,0,0,-1,59.2251,2.3777)"
   id="text430"
   style="font-variant:normal;font-weight:normal;font-size:6.16069984px;font-family:'Times New Roman';-inkscape-font-specification:TimesNewRomanPSMT;writing-mode:lr-tb;fill:#000000;fill-opacity:1;fill-rule:nonzero;stroke:none"><path
     d="M 2.8246568,-0.78512825 2.5388822,0 H 0.13235879 V -0.11130171 Q 1.1942372,-1.0799274 1.6274114,-1.6935908 q 0.4331742,-0.6136635 0.4331742,-1.1220416 0,-0.3880518 -0.2376441,-0.6377286 -0.2376442,-0.2496768 -0.5685412,-0.2496768 -0.30081541,0 -0.54146775,0.1774811 -0.23764418,0.1744729 -0.35195404,0.5143943 H 0.2496768 q 0.0752039,-0.5565085 0.38504374,-0.8543158 0.31284804,-0.2978072 0.77911196,-0.2978072 0.4963454,0 0.8272424,0.3188643 0.3339051,0.3188644 0.3339051,0.7520386 0,0.3098398 -0.1443914,0.6196797 -0.2226034,0.487321 -0.721957,1.0317969 -0.7490304,0.81821798 -0.93553597,0.98667461 H 1.8379822 q 0.3248807,0 0.4542313,-0.0240652 0.1323588,-0.0240652 0.2376442,-0.0962609 0.1052854,-0.0752039 0.1834974,-0.21057079 z"
     id="path1046"
     inkscape:connector-curvature="0" /></g>
</g></g><g
   id="g432"
   transform="translate(0,7.36895)"><path
     d="M 102.2947,10.3833 H 112.678 V 0 h -10.3833 z"
     style="fill:#ffffff;fill-opacity:1;fill-rule:evenodd;stroke:none"
     id="path434"
     inkscape:connector-curvature="0" /><g
     id="g436"><g
   aria-label="I"
   transform="matrix(1,0,0,-1,103.9178,2.6867)"
   id="text440"
   style="font-style:italic;font-variant:normal;font-size:9.09410954px;font-family:'Times New Roman';-inkscape-font-specification:TimesNewRomanPS-ItalicMT;writing-mode:lr-tb;fill:#000000;fill-opacity:1;fill-rule:nonzero;stroke:none"><path
     d="M 2.242444,-0.16429788 2.1935987,0 h -2.47778962 l 0.0621668,-0.16429788 q 0.37300059,-0.008881 0.49289363,-0.0621668 0.19538126,-0.0754882 0.28863141,-0.20870271 Q 0.70603686,-0.6438701 0.86145378,-1.1811685 L 1.9094078,-4.8134838 q 0.1332145,-0.4529292 0.1332145,-0.6838344 0,-0.1154525 -0.057726,-0.1953812 -0.057726,-0.079929 -0.1776193,-0.1198931 -0.1154526,-0.044405 -0.4573698,-0.044405 l 0.053286,-0.1642979 h 2.3268132 l -0.048845,0.1642979 q -0.2841909,-0.00444 -0.4218459,0.062167 -0.1998217,0.08881 -0.3063933,0.2531075 -0.1021311,0.1642979 -0.266429,0.7282392 l -1.0435135,3.6323153 q -0.1420955,0.50177457 -0.1420955,0.63942955 0,0.11101208 0.053286,0.19094078 0.057726,0.0754882 0.1776193,0.11989305 0.1243336,0.0399643 0.5106556,0.0666072 z"
     id="path1049"
     inkscape:connector-curvature="0" /></g>
<g
   aria-label="3"
   transform="matrix(1,0,0,-1,107.4702,1.55)"
   id="text444"
   style="font-variant:normal;font-weight:normal;font-size:6.06273985px;font-family:'Times New Roman';-inkscape-font-specification:TimesNewRomanPSMT;writing-mode:lr-tb;fill:#000000;fill-opacity:1;fill-rule:nonzero;stroke:none"><path
     d="M 0.30787351,-3.2504338 Q 0.4795722,-3.6559979 0.74008055,-3.8750617 1.0035492,-4.0970859 1.3943118,-4.0970859 q 0.4825325,0 0.7400805,0.3137941 0.1953813,0.2338655 0.1953813,0.5002945 0,0.4381277 -0.55062,0.9058586 0.3700403,0.1450558 0.5595009,0.4144451 0.1894607,0.2693893 0.1894607,0.6335089 0,0.52101674 -0.3315561,0.9028983 -0.4322071,0.49733413 -1.25221632,0.49733413 -0.40556414,0 -0.55358025,-0.10065095 -0.14505579,-0.10065096 -0.14505579,-0.21610352 0,-0.0858494 0.0680874,-0.15097643 0.0710477,-0.0651271 0.16873837,-0.0651271 0.074008,0 0.15097643,0.0236826 0.0503255,0.0148016 0.22794481,0.10953192 0.17761935,0.09177 0.24570675,0.10953192 0.1095319,0.0325635 0.2338655,0.0325635 0.3019528,0 0.523977,-0.23386545 0.2249845,-0.23386545 0.2249845,-0.55358025 0,-0.23386547 -0.1036113,-0.45588957 Q 1.9094078,-1.5956137 1.8176378,-1.681463 1.690344,-1.7998759 1.4683198,-1.8946062 1.2462956,-1.9922968 1.0153905,-1.9922968 H 0.9206602 v -0.08881 q 0.2338655,-0.029603 0.4677309,-0.1687384 0.2368258,-0.1391351 0.3433974,-0.3345164 0.1065716,-0.1953812 0.1065716,-0.4292467 0,-0.3049132 -0.192421,-0.4914135 -0.1894606,-0.1894606 -0.4736515,-0.1894606 -0.45884995,0 -0.76672346,0.4914135 z"
     id="path1052"
     inkscape:connector-curvature="0" /></g>
</g></g><g
   id="g446"
   transform="translate(0.91574527,6.92065)"><path
     d="m 144.9488,10.3833 h 9.4867 V 0.8966 h -9.4867 z"
     style="fill:#ffffff;fill-opacity:1;fill-rule:evenodd;stroke:none"
     id="path448"
     inkscape:connector-curvature="0" /><g
     id="g450"><g
   aria-label="I"
   transform="matrix(1,0,0,-1,146.5832,3.4367)"
   id="text454"
   style="font-style:italic;font-variant:normal;font-size:8.95541954px;font-family:'Times New Roman';-inkscape-font-specification:TimesNewRomanPS-ItalicMT;writing-mode:lr-tb;fill:#000000;fill-opacity:1;fill-rule:nonzero;stroke:none"><path
     d="M 2.2082455,-0.16179225 2.1601451,0 h -2.44000196 l 0.0612187,-0.16179225 q 0.36731213,-0.008746 0.48537674,-0.0612187 0.19240159,-0.074337 0.28422962,-0.20551988 0.1443012,-0.20551988 0.29734792,-0.73462427 L 1.8802883,-4.7400756 q 0.1311829,-0.4460218 0.1311829,-0.6734055 0,-0.1136919 -0.056846,-0.1924016 -0.056846,-0.07871 -0.1749106,-0.1180647 -0.1136918,-0.043728 -0.4503946,-0.043728 l 0.052473,-0.1617922 h 2.2913281 l -0.0481,0.1617922 q -0.2798569,-0.00437 -0.4154125,0.061219 -0.1967744,0.087455 -0.3017207,0.2492475 -0.1005736,0.1617923 -0.2623658,0.7171332 l -1.0275994,3.5769205 q -0.1399285,0.49412229 -0.1399285,0.62967796 0,0.10931909 0.052473,0.18802883 0.056846,0.074337 0.1749105,0.11806461 0.1224374,0.0393549 0.5028678,0.0655915 z"
     id="path1055"
     inkscape:connector-curvature="0" /></g>
<g
   aria-label="4"
   transform="matrix(1,0,0,-1,150.0817,2.317)"
   id="text458"
   style="font-variant:normal;font-weight:normal;font-size:5.97028017px;font-family:'Times New Roman';-inkscape-font-specification:TimesNewRomanPSMT;writing-mode:lr-tb;fill:#000000;fill-opacity:1;fill-rule:nonzero;stroke:none"><path
     d="M 2.7781626,-1.4575879 V -1.043633 H 2.2476006 V 0 H 1.7665966 V -1.043633 H 0.09328563 V -1.4167755 L 1.9269312,-4.0346034 h 0.3206694 v 2.5770155 z m -1.011566,0 v -1.9619134 l -1.38762374,1.9619134 z"
     id="path1058"
     inkscape:connector-curvature="0" /></g>
</g></g><g
   id="g460"
   transform="translate(0,6.8125)"><path
     d="m 183.7043,10.6126 h 9.7291 v -9.729 h -9.7291 z"
     style="fill:#ffffff;fill-opacity:1;fill-rule:evenodd;stroke:none"
     id="path462"
     inkscape:connector-curvature="0" /><g
     id="g464"><g
   aria-label="I"
   transform="matrix(1,0,0,-1,185.7158,3.3999)"
   id="text468"
   style="font-style:italic;font-variant:normal;font-size:8.79281044px;font-family:'Times New Roman';-inkscape-font-specification:TimesNewRomanPS-ItalicMT;writing-mode:lr-tb;fill:#000000;fill-opacity:1;fill-rule:nonzero;stroke:none"><path
     d="M 2.1681491,-0.15885449 2.120922,0 h -2.39569733 l 0.0601071,-0.15885449 q 0.36064261,-0.008587 0.47656345,-0.0601071 0.18890804,-0.0729872 0.27906869,-0.20178813 0.14168103,-0.20178813 0.29194879,-0.72128518 l 1.013234,-3.5119722 q 0.128801,-0.4379232 0.128801,-0.6611781 0,-0.1116275 -0.055814,-0.1889081 -0.055814,-0.07728 -0.1717346,-0.1159208 -0.1116274,-0.042934 -0.4422165,-0.042934 l 0.05152,-0.1588545 h 2.249723 l -0.047227,0.1588545 q -0.2747753,-0.00429 -0.4078696,0.060107 -0.1932014,0.085867 -0.2962421,0.2447217 -0.098747,0.1588545 -0.2576019,0.7041118 l -1.0089406,3.5119722 q -0.1373877,0.48515014 -0.1373877,0.61824443 0,0.10733412 0.05152,0.18461468 0.055814,0.0729872 0.1717345,0.11592084 0.1202142,0.0386403 0.493737,0.0644005 z"
     id="path1061"
     inkscape:connector-curvature="0" /></g>
<g
   aria-label="5"
   transform="matrix(1,0,0,-1,189.1508,2.3922)"
   id="text472"
   style="font-variant:normal;font-weight:normal;font-size:5.86186981px;font-family:'Times New Roman';-inkscape-font-specification:TimesNewRomanPSMT;writing-mode:lr-tb;fill:#000000;fill-opacity:1;fill-rule:nonzero;stroke:none"><path
     d="M 2.5445324,-3.881199 2.3212775,-3.394618 H 1.1534832 l -0.25473949,0.5209279 q 0.75849389,0.1116274 1.20214129,0.5638615 0.3806781,0.3892648 0.3806781,0.9159172 0,0.3062598 -0.1259387,0.56672372 -0.1230763,0.26046394 -0.3119842,0.44364737 -0.188908,0.18318343 -0.4207495,0.29481084 -0.3291577,0.15742326 -0.67548889,0.15742326 -0.34919342,0 -0.50947892,-0.11735189 -0.15742326,-0.12021413 -0.15742326,-0.26332618 0,-0.0801427 0.0658316,-0.14024982 0.0658315,-0.0629693 0.16600998,-0.0629693 0.0744183,0 0.12880085,0.0228979 0.0572448,0.0228979 0.19177016,0.11735188 0.21466808,0.14883654 0.43506068,0.14883654 0.3348822,0 0.5867594,-0.25187722 0.2547395,-0.25473946 0.2547395,-0.618244 0,-0.3520557 -0.226117,-0.6554533 Q 1.6572376,-2.0579514 1.2593861,-2.2239613 0.94740181,-2.3527622 0.40930048,-2.3727979 L 1.1534832,-3.881199 Z"
     id="path1064"
     inkscape:connector-curvature="0" /></g>
</g></g><g
   id="g474"
   transform="translate(0,6.69655)"><path
     d="m 231.1741,10.3833 h 9.0386 V 1.3448 h -9.0386 z"
     style="fill:#ffffff;fill-opacity:1;fill-rule:evenodd;stroke:none"
     id="path476"
     inkscape:connector-curvature="0" /><g
     id="g478"><g
   aria-label="I"
   transform="matrix(1,0,0,-1,232.0852,3.1226)"
   id="text482"
   style="font-style:italic;font-variant:normal;font-size:8.52737999px;font-family:'Times New Roman';-inkscape-font-specification:TimesNewRomanPS-ItalicMT;writing-mode:lr-tb;fill:#231f20;fill-opacity:1;fill-rule:nonzero;stroke:none"><path
     d="M 2.1026987,-0.15405911 2.0568973,0 h -2.32337792 l 0.0582926,-0.15405911 q 0.34975582,-0.008328 0.46217734,-0.0582926 0.18320542,-0.0707839 0.27064438,-0.19569671 0.1374041,-0.19569675 0.28313569,-0.69951168 L 1.7904167,-4.5135156 q 0.1249128,-0.4247035 0.1249128,-0.641219 0,-0.1082577 -0.054129,-0.1832054 -0.054129,-0.074948 -0.1665504,-0.1124215 -0.1082577,-0.041638 -0.4288672,-0.041638 l 0.049965,-0.1540591 H 3.497558 l -0.045801,0.1540591 q -0.2664806,-0.00416 -0.3955571,0.058293 -0.1873692,0.083275 -0.2872995,0.2373343 -0.095766,0.1540591 -0.2498255,0.6828566 l -0.9784836,3.4059555 q -0.1332403,0.47050486 -0.1332403,0.59958141 0,0.10409399 0.049965,0.17904167 0.054129,0.0707839 0.1665504,0.11242151 0.1165853,0.0374738 0.4788323,0.0624564 z"
     id="path1067"
     inkscape:connector-curvature="0" /></g>
<g
   aria-label="6"
   transform="matrix(1,0,0,-1,235.4165,2.0568)"
   id="text486"
   style="font-variant:normal;font-weight:normal;font-size:5.68491983px;font-family:'Times New Roman';-inkscape-font-specification:TimesNewRomanPSMT;writing-mode:lr-tb;fill:#231f20;fill-opacity:1;fill-rule:nonzero;stroke:none"><path
     d="m 2.5482209,-3.8417622 v 0.102706 q -0.3664108,0.036086 -0.5995814,0.1471195 -0.2303947,0.1082578 -0.4580135,0.3331008 -0.2248431,0.224843 -0.3747384,0.502427 -0.14711952,0.2748082 -0.24704975,0.6550982 0.39972095,-0.2748081 0.80221765,-0.2748081 0.3858418,0 0.6689774,0.310894 0.2831357,0.3108941 0.2831357,0.7994419 0,0.47189273 -0.2859115,0.86051029 -0.3442042,0.47189276 -0.9104755,0.47189276 -0.3858417,0 -0.65509815,-0.25537725 -0.52740955,-0.49687532 -0.52740955,-1.2879897 0,-0.5052028 0.2026363,-0.9604405 0.2026363,-0.4552377 0.5773747,-0.8077694 0.3775142,-0.3525316 0.7217183,-0.4746686 0.3442041,-0.1221369 0.641219,-0.1221369 z m -1.72657233,1.9430878 q -0.0499651,0.3747384 -0.0499651,0.6051331 0,0.2664806 0.0971544,0.58015048 0.0999302,0.31089405 0.29423903,0.49409948 0.1415678,0.13046447 0.3442041,0.13046447 0.2414981,0 0.4302552,-0.22761886 0.1915329,-0.22761886 0.1915329,-0.64954651 0,-0.47466856 -0.1887571,-0.82164856 -0.1887571,-0.34698 -0.5357371,-0.34698 -0.1054819,0 -0.2276188,0.044414 -0.1193612,0.044413 -0.35530753,0.1915324 z"
     id="path1070"
     inkscape:connector-curvature="0" /></g>
</g></g><g
   aria-label="x"
   transform="matrix(1,0,0,-1,276.3255,62.7664)"
   id="text490"
   style="font-style:italic;font-variant:normal;font-size:10.12px;font-family:'Times New Roman';-inkscape-font-specification:TimesNewRomanPS-ItalicMT;writing-mode:lr-tb;fill:#000000;fill-opacity:1;fill-rule:nonzero;stroke:none"><path
     d="m 1.7541992,-4.4719726 q 0.2421289,0.2569531 0.3656641,0.5139062 0.088945,0.1778907 0.2915429,0.9339258 L 2.84625,-3.6764062 q 0.1729492,-0.2371875 0.4200195,-0.449668 0.2470703,-0.2174218 0.4348437,-0.2964843 0.1185938,-0.049414 0.2618946,-0.049414 0.2124804,0 0.3360156,0.1136523 0.1284765,0.1136524 0.1284765,0.2767188 0,0.1877734 -0.074121,0.2569531 -0.1383594,0.1235352 -0.31625,0.1235352 -0.1037696,0 -0.2223633,-0.044473 -0.2322461,-0.079063 -0.3113086,-0.079063 -0.1185938,0 -0.2816602,0.1383594 -0.3063671,0.2569531 -0.7313281,0.9932226 l 0.4051953,1.69984375 q 0.093887,0.39037109 0.158125,0.46943359 0.064238,0.0741211 0.1284766,0.0741211 0.1037695,0 0.2421289,-0.11365235 0.2717773,-0.22730468 0.4644922,-0.59296869 l 0.1729492,0.088945 q -0.3113086,0.58308589 -0.790625,0.96851558 -0.2717773,0.21742187 -0.4595508,0.21742187 -0.2767187,0 -0.4397851,-0.31130859 Q 2.2681054,-0.38542968 1.9419726,-1.8530273 1.1711133,-0.51390624 0.70662109,-0.12847656 0.40519531,0.11859375 0.12353515,0.11859375 q -0.19765624,0 -0.36072265,-0.14330078 -0.11859375,-0.10871094 -0.11859375,-0.29154297 0,-0.1630664 0.10871094,-0.27177734 0.10871094,-0.10871093 0.26683593,-0.10871093 0.158125,0 0.33601563,0.15812499 0.12847656,0.11365235 0.19765624,0.11365235 0.0592969,0 0.1531836,-0.0790625 Q 0.93886718,-0.69179687 1.3391211,-1.314414 1.739375,-1.9370312 1.8629101,-2.21375 1.556543,-3.4145117 1.5318359,-3.4836914 1.4181836,-3.8048828 1.2353515,-3.9383007 q -0.182832,-0.133418 -0.53861323,-0.133418 -0.11365234,0 -0.26189452,0.00988 v -0.1778906 z"
     id="path1073" /></g>
<g
   aria-label="y"
   transform="matrix(1,0,0,-1,32.1477,168.9483)"
   id="text494"
   style="font-style:italic;font-variant:normal;font-size:9.735px;font-family:'Times New Roman';-inkscape-font-specification:TimesNewRomanPS-ItalicMT;writing-mode:lr-tb;fill:#000000;fill-opacity:1;fill-rule:nonzero;stroke:none"><path
     d="m 1.5543676,-4.3018431 q 0.1616162,0.2756982 0.2234107,0.5181225 0.061794,0.2376709 0.1235888,0.9411768 l 0.2091504,2.33868151 q 0.2852051,-0.34224608 0.8270947,-1.08377921 0.261438,-0.3612598 0.6464648,-0.9839575 0.2329175,-0.3802735 0.2852051,-0.5323828 0.02852,-0.076055 0.02852,-0.1568628 0,-0.052288 -0.033274,-0.085561 -0.033274,-0.033274 -0.1758765,-0.076055 -0.1378491,-0.047534 -0.2329175,-0.1663696 -0.090315,-0.1235889 -0.090315,-0.2804517 0,-0.1948901 0.114082,-0.3137256 0.1140821,-0.1188354 0.2852051,-0.1188354 0.2091504,0 0.3565063,0.1758764 0.147356,0.1711231 0.147356,0.4753418 0,0.37552 -0.2566846,0.8603687 Q 3.7552001,-2.3101611 3.0231737,-1.3119433 2.2911474,-0.31372557 1.2501489,0.86512204 0.53238279,1.6779565 0.18538329,1.8871069 q -0.3469995,0.2139038 -0.59417722,0.2139038 -0.14735595,0 -0.25668456,-0.1140821 Q -0.77956052,1.8776 -0.77956052,1.7302441 q 0,-0.1853833 0.15686279,-0.3374927 0.15210937,-0.1521094 0.33273924,-0.1521094 0.0950684,0 0.15686279,0.042781 0.03802734,0.023767 0.08556152,0.1330957 0.04278076,0.114082 0.0808081,0.1521094 0.02376709,0.023767 0.05704102,0.023767 0.02852051,0 0.09982177,-0.047534 Q 0.45157469,1.3832446 0.79857419,1.0314917 1.2549023,0.56565672 1.4735595,0.27094481 L 1.2073681,-2.7427221 Q 1.1408203,-3.4890087 1.0077246,-3.6506249 0.87462888,-3.8122411 0.5609033,-3.8122411 q -0.0998218,0 -0.35650633,0.02852 L 0.16161621,-3.959597 Z"
     id="path1076" /></g>
<path
   d="m 86.421116,72.204298 c 0.793056,0 1.435817,-0.642761 1.435817,-1.435817 0,-0.793057 -0.642761,-1.435817 -1.435817,-1.435817 -0.793057,0 -1.435817,0.64276 -1.435817,1.435817 0,0.793056 0.64276,1.435817 1.435817,1.435817 z"
   style="fill:none;fill-opacity:1;fill-rule:evenodd;stroke:#f52008;stroke-width:0.51975001;stroke-linecap:butt;stroke-linejoin:miter;stroke-miterlimit:22.92558479;stroke-dasharray:none;stroke-opacity:0.98039216"
   id="path554"
   inkscape:connector-curvature="0" /><path
   style="fill:none;stroke:#ff0000;stroke-width:1.42500007;stroke-linecap:butt;stroke-linejoin:miter;stroke-miterlimit:4;stroke-dasharray:none;stroke-opacity:1"
   d="m 87.748948,71.061577 c 10.445106,2.808519 16.677162,11.875074 22.608162,20.595079 5.2265,7.684229 10.19157,16.684574 20.49614,20.208404"
   id="path1367"
   inkscape:connector-curvature="0"
   sodipodi:nodetypes="csc" /><path
   style="fill:none;stroke:#ff0000;stroke-width:1.42500007;stroke-linecap:butt;stroke-linejoin:miter;stroke-miterlimit:4;stroke-dasharray:none;stroke-opacity:1"
   d="M 10.799997,73.976601 C 16.558965,53.031053 22.05555,30.80155 32.054997,30.6065 44.426622,34.720509 51.188913,64.752997 58.530297,85.335598 75.36186,132.30538 80.13056,127.44009 86.4394,129.1929 v 0"
   id="path1384"
   inkscape:connector-curvature="0"
   sodipodi:nodetypes="ccccc" /><path
   d="m 86.460048,130.599 c 0.79305,0 1.43582,-0.64276 1.43582,-1.43581 0,-0.79306 -0.64277,-1.43582 -1.43582,-1.43582 -0.79306,0 -1.43582,0.64276 -1.43582,1.43582 0,0.79305 0.64276,1.43581 1.43582,1.43581 z"
   style="fill:#d40000;fill-opacity:1;fill-rule:evenodd;stroke:#f52008;stroke-width:0.14460598;stroke-linecap:butt;stroke-linejoin:miter;stroke-miterlimit:22.92558479;stroke-dasharray:none;stroke-opacity:0.98039216"
   id="path554-2-9"
   inkscape:connector-curvature="0" /><path
   d="m 219.6504,69.418066 v 2.1798"
   style="fill:none;stroke:#000000;stroke-width:0.37279999;stroke-linecap:butt;stroke-linejoin:miter;stroke-miterlimit:22.92558479;stroke-dasharray:none;stroke-opacity:1"
   id="path318-3"
   inkscape:connector-curvature="0" /><path
   style="fill:none;stroke:#ff0000;stroke-width:1.42500007;stroke-linecap:butt;stroke-linejoin:miter;stroke-miterlimit:4;stroke-dasharray:none;stroke-opacity:1"
   d="m 133.07914,89.572973 c 11.06879,-2.37548 17.91192,12.134057 31.31926,11.396827 20.33395,-1.1181 24.97515,-33.807268 44.85393,-38.339031 12.45719,-0.323763 21.87904,30.109041 28.66991,50.261481 6.72663,19.96176 18.75705,52.01369 26.58306,47.25255"
   id="path1416"
   inkscape:connector-curvature="0"
   sodipodi:nodetypes="cscsc" /><path
   d="m 264.5053,162.0401 c 0.79305,0 1.43582,-0.64276 1.43582,-1.43581 0,-0.79306 -0.64277,-1.43582 -1.43582,-1.43582 -0.79306,0 -1.43582,0.64276 -1.43582,1.43582 0,0.79305 0.64276,1.43581 1.43582,1.43581 z"
   style="fill:#d40000;fill-opacity:1;fill-rule:evenodd;stroke:#ff0000;stroke-width:0.14460598;stroke-linecap:butt;stroke-linejoin:miter;stroke-miterlimit:22.92558479;stroke-dasharray:none;stroke-opacity:0.98039216"
   id="path554-2-6"
   inkscape:connector-curvature="0" /><path
   d="m 10.991451,75.412504 c 0.79305,0 1.43582,-0.64276 1.43582,-1.43581 0,-0.79306 -0.64277,-1.43582 -1.43582,-1.43582 -0.79306,0 -1.4358203,0.64276 -1.4358203,1.43582 0,0.79305 0.6427603,1.43581 1.4358203,1.43581 z"
   style="fill:#ff0000;fill-opacity:1;fill-rule:evenodd;stroke:#ff0000;stroke-width:0.14460598;stroke-linecap:butt;stroke-linejoin:miter;stroke-miterlimit:22.92558479;stroke-dasharray:none;stroke-opacity:0.98039216"
   id="path554-2-9-8"
   inkscape:connector-curvature="0" /><g
   id="g1495"
   transform="matrix(1.0095365,0,0,1,-0.52029675,11.847263)"><path
     sodipodi:nodetypes="cc"
     inkscape:connector-curvature="0"
     id="path180"
     d="m 32.84103,-6.3983853 51.91479,0.2104471"
     style="opacity:0.93999999;fill:none;stroke:#0000ff;stroke-width:0.75;stroke-linecap:butt;stroke-linejoin:miter;stroke-miterlimit:4;stroke-dasharray:0.75000002, 0.75000002;stroke-dashoffset:0;stroke-opacity:1" /><path
     inkscape:connector-curvature="0"
     id="path554-6-8"
     style="fill:none;fill-opacity:1;fill-rule:evenodd;stroke:#0000ff;stroke-width:0.51975;stroke-linecap:butt;stroke-linejoin:miter;stroke-miterlimit:22.92558479;stroke-dasharray:none;stroke-opacity:0.98039216"
     d="m 86.085372,-4.8566135 c 0.79306,0 1.43582,-0.6427599 1.43582,-1.4358099 0,-0.79306 -0.64276,-1.43582 -1.43582,-1.43582 -0.79306,0 -1.43582,0.64276 -1.43582,1.43582 0,0.79305 0.64276,1.4358099 1.43582,1.4358099 z" /><path
     inkscape:connector-curvature="0"
     id="path554-6-8-2"
     style="fill:none;fill-opacity:1;fill-rule:evenodd;stroke:#0000ff;stroke-width:0.51975;stroke-linecap:butt;stroke-linejoin:miter;stroke-miterlimit:22.92558479;stroke-dasharray:none;stroke-opacity:0.98039216"
     d="m 31.600531,-4.8653443 c 0.79306,0 1.43582,-0.64276 1.43582,-1.43581 0,-0.79306 -0.64276,-1.4358202 -1.43582,-1.4358202 -0.79306,0 -1.43582,0.6427602 -1.43582,1.4358202 0,0.79305 0.64276,1.43581 1.43582,1.43581 z" /></g><g
   id="g1516"
   transform="translate(-2.0146396,12.136509)"><path
     inkscape:connector-curvature="0"
     id="path1497"
     d="m 14.298352,-6.6509908 17.831301,0.240735"
     style="fill:none;stroke:#0000ff;stroke-width:0.75;stroke-linecap:butt;stroke-linejoin:miter;stroke-miterlimit:4;stroke-dasharray:0.75000002, 0.75000002;stroke-dashoffset:0;stroke-opacity:1" /><path
     inkscape:connector-curvature="0"
     id="path554-6-8-8-3"
     style="fill:none;fill-opacity:1;fill-rule:evenodd;stroke:#0000ff;stroke-width:0.51975;stroke-linecap:butt;stroke-linejoin:miter;stroke-miterlimit:22.92558479;stroke-dasharray:none;stroke-opacity:0.98039216"
     d="m 13.010902,-5.1502251 c 0.79306,0 1.43582,-0.64276 1.43582,-1.43581 0,-0.79306 -0.64276,-1.43582 -1.43582,-1.43582 -0.79306,0 -1.43582,0.64276 -1.43582,1.43582 0,0.79305 0.64276,1.43581 1.43582,1.43581 z" /></g><g
   id="g1543"
   transform="translate(0,-0.0308169)"><path
     inkscape:connector-curvature="0"
     id="path1518"
     d="M 87.561286,5.650203 H 130.73184"
     style="fill:none;stroke:#0000ff;stroke-width:0.76492065;stroke-linecap:butt;stroke-linejoin:miter;stroke-miterlimit:4;stroke-dasharray:0.76492066, 0.76492066;stroke-dashoffset:0;stroke-opacity:1" /><path
     inkscape:connector-curvature="0"
     id="path554-6-8-8-7"
     style="fill:none;fill-opacity:1;fill-rule:evenodd;stroke:#0000ff;stroke-width:0.52128839;stroke-linecap:butt;stroke-linejoin:miter;stroke-miterlimit:22.92558479;stroke-dasharray:none;stroke-opacity:0.98039216"
     d="m 131.96027,7.0171011 c 0.79776,0 1.44434,-0.64276 1.44434,-1.43581 0,-0.79306 -0.64658,-1.43582 -1.44434,-1.43582 -0.79776,0 -1.44433,0.64276 -1.44433,1.43582 0,0.79305 0.64657,1.43581 1.44433,1.43581 z" /></g><g
   id="g1572"
   transform="translate(0,-0.1306158)"><path
     inkscape:connector-curvature="0"
     id="path1545"
     d="M 133.20251,5.6137391 H 161.4784"
     style="fill:none;stroke:#0000ff;stroke-width:0.7556451;stroke-linecap:butt;stroke-linejoin:miter;stroke-miterlimit:4;stroke-dasharray:0.7556451, 0.7556451;stroke-dashoffset:0;stroke-opacity:1" /><path
     inkscape:connector-curvature="0"
     id="path554-6-8-8-9"
     style="fill:none;fill-opacity:1;fill-rule:evenodd;stroke:#0000ff;stroke-width:0.51975;stroke-linecap:butt;stroke-linejoin:miter;stroke-miterlimit:22.92558479;stroke-dasharray:none;stroke-opacity:0.98039216"
     d="m 163.0806,7.1169 c 0.79306,0 1.43582,-0.64276 1.43582,-1.43581 0,-0.79306 -0.64276,-1.43582 -1.43582,-1.43582 -0.79306,0 -1.43582,0.64276 -1.43582,1.43582 0,0.79305 0.64276,1.43581 1.43582,1.43581 z" /></g><g
   id="g1595"
   transform="translate(0,-0.1315158)"><path
     inkscape:connector-curvature="0"
     id="path1576"
     d="m 164.57334,5.6048129 h 43.64542"
     style="fill:none;stroke:#0000ff;stroke-width:0.74073297;stroke-linecap:butt;stroke-linejoin:miter;stroke-miterlimit:4;stroke-dasharray:0.74073299, 0.74073299;stroke-dashoffset:0;stroke-opacity:1" /><path
     inkscape:connector-curvature="0"
     id="path554-6-8-8-73"
     style="fill:none;fill-opacity:1;fill-rule:evenodd;stroke:#0000ff;stroke-width:0.51975;stroke-linecap:butt;stroke-linejoin:miter;stroke-miterlimit:22.92558479;stroke-dasharray:none;stroke-opacity:0.98039216"
     d="m 209.4324,7.1178 c 0.79306,0 1.43582,-0.64276 1.43582,-1.43581 0,-0.79306 -0.64276,-1.43582 -1.43582,-1.43582 -0.79306,0 -1.43582,0.64276 -1.43582,1.43582 0,0.79305 0.64276,1.43581 1.43582,1.43581 z" /></g><g
   id="g1618"
   transform="translate(0,-0.1096163)"><path
     inkscape:connector-curvature="0"
     id="path554-6-8-8"
     style="fill:none;fill-opacity:1;fill-rule:evenodd;stroke:#0000ff;stroke-width:0.51975;stroke-linecap:butt;stroke-linejoin:miter;stroke-miterlimit:22.92558479;stroke-dasharray:none;stroke-opacity:0.98039216"
     d="m 265.35845,7.0959005 c 0.79306,0 1.43582,-0.64276 1.43582,-1.43581 0,-0.79306 -0.64276,-1.43582 -1.43582,-1.43582 -0.79306,0 -1.43582,0.64276 -1.43582,1.43582 0,0.79305 0.64276,1.43581 1.43582,1.43581 z" /><path
     inkscape:connector-curvature="0"
     id="path1614"
     d="m 210.81188,5.6048129 h 53.02165"
     style="fill:none;stroke:#0000ff;stroke-width:0.75;stroke-linecap:butt;stroke-linejoin:miter;stroke-miterlimit:4;stroke-dasharray:0.75000002, 1.50000004;stroke-dashoffset:0;stroke-opacity:1" /></g><path
   d="m 131.96027,110.55213 c 0,-103.5690696 0,-103.5658458 0,-103.5658458"
   style="fill:#0093ff;stroke:#0000ff;stroke-width:0.68854421;stroke-linecap:butt;stroke-linejoin:miter;stroke-miterlimit:22.92558479;stroke-dasharray:0.68854425, 0.68854425;stroke-dashoffset:0;stroke-opacity:1"
   id="path376-7"
   inkscape:connector-curvature="0" /><path
   d="m 131.92289,113.34126 c 0.79305,0 1.43582,-0.64276 1.43582,-1.43581 0,-0.79306 -0.64277,-1.43582 -1.43582,-1.43582 -0.79306,0 -1.43582,0.64276 -1.43582,1.43582 0,0.79305 0.64276,1.43581 1.43582,1.43581 z"
   style="fill:#ff0000;fill-opacity:1;fill-rule:evenodd;stroke:#f52008;stroke-width:0.14460598;stroke-linecap:butt;stroke-linejoin:miter;stroke-miterlimit:22.92558479;stroke-dasharray:none;stroke-opacity:0.98039216"
   id="path554-2"
   inkscape:connector-curvature="0" /><path
   d="m 131.86707,91.169356 c 0.79306,0 1.43582,-0.64276 1.43582,-1.43581 0,-0.79306 -0.64276,-1.43582 -1.43582,-1.43582 -0.79306,0 -1.43582,0.64276 -1.43582,1.43582 0,0.79305 0.64276,1.43581 1.43582,1.43581 z"
   style="fill:none;fill-opacity:1;fill-rule:evenodd;stroke:#f52008;stroke-width:0.51975;stroke-linecap:butt;stroke-linejoin:miter;stroke-miterlimit:22.92558479;stroke-dasharray:none;stroke-opacity:0.98039216"
   id="path554-6"
   inkscape:connector-curvature="0" /></g></svg>